<?xml version="1.0" encoding="UTF-8"?>
<svg id="Layer_1" xmlns="http://www.w3.org/2000/svg" version="1.1" viewBox="0 0 1409.9 362">
  <!-- Generator: Adobe Illustrator 29.3.1, SVG Export Plug-In . SVG Version: 2.1.0 Build 151)  -->
  <defs>
    <style>
      .st0 {
        fill: #caffd0;
      }

      .st1 {
        fill: #0e3b43;
      }
    </style>
  </defs>
  <path class="st0" d="M1408.2,258.1c-.8-1.1-2.8-2.9-6.1-3-.5,0-1,0-1.3,0-1.4-.1-2.8-.3-4.3-.5-2.5-.3-5-.6-7.7-.7-.7,0-1.3,0-2,0-.4,0-.8,0-1.1,0l-6.3.9c-2.2.3-4,1.5-5.2,3.3l-13.4-.5c-.3-1.6-1.2-3.1-2.5-4.2-1.3-1-2.8-1.6-4.4-1.7-.4,0-.7,0-1.1,0-.4,0-.8,0-1.2,0-1.2,0-2.5-.3-4-.5-1.4-.3-2.9-.5-4.5-.6-.7,0-1.4-.1-2.2-.1-1.6,0-3.3-.1-4.9-.1-1.1,0-2.2,0-3.2,0-.7-3.1-3.3-5.5-6.6-5.8-.8,0-1.5-.1-2.4-.2-1.2,0-2.3,0-3.4-.1-1.1,0-2,0-3,0-.8,0-1.5,0-2.2-.2-.6,0-1.4-.3-2.2-.5-1.5-.4-3.3-.8-5.3-.9,0,0,0,0,0,0-2.3-.1-4.5.3-6.5,1.2-1.1-1-2.5-1.6-4-1.8l-8.4-1c-.2,0-.4,0-.5,0-.7,0-1.4,0-2.1.2-.5-.2-1.1-.3-1.6-.4l-23.9-2.6-26.1-3.1h0l-13.2-1.6c-.2,0-.4,0-.5,0-.4,0-.8,0-1.2,0-.4,0-.8-.1-1.2-.2,0,0-.1,0-.2,0-.4,0-.7,0-1.1,0-4-.2-8.1-.8-12.4-1.5-4.3-.7-8.7-1.3-13.3-1.6-.3-.2-.7-.3-1.1-.4-6.6-2-12.4-2.4-18.6-2.9h-.6c-.3,0-.8-.2-1.4-.3-1-.2-2.2-.4-3.6-.5h0c-1.8,0-3.6.1-5.3.7,0,0,0,0,0,0-.9-.8-2-1.4-3.2-1.7-3.5-.8-6.9-1.1-9.7-1.2-.9,0-1.7,0-2.6-.1-.6,0-1.1,0-1.7,0-.3,0-.5,0-.8,0l-16.1-3.6c-.2,0-.4,0-.6-.1-19-2.6-38.3-4.8-57-7-27.8-3.2-56.5-6.5-84.2-11.1-1.1-.2-2.2-.3-3.4-.4-.2,0-.4,0-.6,0-.1-.6-.1-.6,0-1.3.1-.8.3-1.8.2-3.3,0-5.8-1.7-9.4-3-12.6-.6-1.3-1.1-2.5-1.6-4-1.5-4.8-1.6-14.1-1.6-21.6,0-4.3,0-8.3-.3-11.8,0-.6,0-1.2-.1-1.7-.3-3.6-.3-4.3.1-8.5.7-6.8-2.9-16.1-5.6-20.2-3.1-4.9-8.9-6.6-12-7.2-1.8-.3-5.7-.7-8.8-.9-5.2-.2-7.3.2-8.9.9-2.8,1.2-4.2,3.6-5,5.1-.9.5-2.2,1.4-3.2,2.8-.4.6-.8,1.3-1.2,2.3-.5-.1-1.1-.3-1.6-.3-2.1-.3-5.2-.5-6.2-.5-2,0-4.7-.2-6.5,0-1.3.1-1.9.2-9.3,3.9-1.9,1-6.6,3.3-7.8,4.1-1.8,1.2-3,2.6-3.8,3.7-.8.2-1.9.6-3,1.3-.8.5-1.1.9-3,2.8-.8.8-2.5,2.6-3,3-3.5,3-5.6,5.3-8.6,8.4h-.1c-.2.4-.8.8-1.3,1.2-1.3,1-2.8,2.3-4,4-3.2,4.5-4.9,10.2-5.8,15-.2-2-.3-3.1-.6-3.9-1-4.1-3.1-8.3-5.1-12.3-1.1-2.3-2.2-4.4-2.9-6.2-1.1-2.8-1.1-5.1-1.1-8.2,0-1.9,0-4.1-.2-6.5-.2-2.2-1.1-4.2-1.9-5.7,0-.2-.2-.4-.3-.5.3-1.4.5-3.7-.5-6.4-2.7-6.7-13-9.3-14.1-9.6-2.6-.6-9.1-1.9-12.4-2.1,0,0-.1,0-.2,0-9-.4-14.2,10.6-14.5,16.7-.3,6.1,4.2,9.5,6.6,11.3,0,0,.2.1.2.2,0,.3,0,.6,0,1,0,1.1,0,2.3,0,3.5,0,.7,0,1.5,0,2.2-.5.7-1.1,1.7-1.5,2.9-1.2,3.6-1.7,7.5-2.1,11.3-.3,2.9-.6,5.6-1.2,7.6-.3.9-1,2.2-2.1,3.7-2.7,3.8-7.3,8.8-10.6,11.3-1.6,1.2-5,2.7-7.6,3.4,0-.4-.1-.7-.2-1.1-1.3-5.1-1.3-9.2-1.3-14.4,0-2.2,0-4.5,0-7.1-.1-3.1-.7-6.2-1.2-9.3-.5-2.7-.9-5.4-1-7.4.3-1,.9-2.8.6-5.3-.2-1.8-1.8-7.1-2.4-8.3-.9-2-2.4-3.4-3.6-4.6-.3-.3-.7-.7-1-1-1.1-2.6-3.6-4.3-6.4-4.4,0,0-.2,0-.3,0h-9.8c-1.3-.2-2.7.2-3.8.9-.2.1-.5.3-.7.4-3.6,2-8.9,5.1-8.2,14.2.1,1.7.8,4,2.8,5.8.3,1.9.6,4.9.6,6,0,2.2.2,3.6.3,4.8,0,.7.2,1.3.2,2,.2,2.8.2,6,.1,9.4,0,8-.2,17.2,2.5,25.4-.5,0-1.1,0-1.6.2-.6,0-1.1.2-1.6.4-.9-.3-2.1-.7-3.4-.7-.2,0-.4,0-.6,0-.6-.5-1.2-1-1.8-1.3-.1,0-.2-.2-.3-.2-.4-3.6-.7-7.2-1.1-10.7-.8-7.1-1.6-14.4-2.1-21.6,0-.2,0-.8.1-1.2.1-1.3.3-2.9,0-4.6-.3-2.1-1.1-3.6-1.8-4.8,0-.1-.1-.3-.2-.4,0,0,0-.2,0-.2.4-2.4,0-3.9-.8-6.7l-.5-1.8c-2-6.8-4.5-15.2-7.9-21-1.3-2.2-9-9.5-11.3-10.7-2.2-1.1-4.3-1.8-6.5-1.9-4-.2-6.9,1.4-9.2,2.7-.2.1-.4.2-.6.3-.9.2-2.3.5-3.8,1.5-.6.4-1,.7-3,2.9-1.5,1.6-2.6,2.8-3.1,4.6-.9-.5-2.2-1.1-3.8-1.1-.2,0-.5,0-.8,0-2.5.1-9.8,1.7-11.4,2.1-5.8,1.6-21.2,10.8-25.3,15.8-2.9,3.4-8.7,12.9-11.8,19.7-.3-7.5-.7-15-1.2-22.3-.3-5.1-.6-10.4-.9-15.6-1.2-25.6-4-51.5-6.6-76.4,0-.2,0-.9,0-1.4.1-1.2.2-2.8,0-4.6-.7-5.6-3.5-10.7-8.6-15.6-3.9-3.8-7.5-6.2-12.4-8.4-2.1-.9-4.2-1.5-6.2-1.6,0,0,0,0,0,0-3.6-.2-6.8,1-9.5,3.2-2.2-.9-5-1.4-8.2-1.6-1.7,0-3.3,0-4.7.1-5.1.6-8.9,4.2-9.9,9.1-1.4,7.4-7.2,14.6-12.7,21.5-.9,1.2-1.8,2.3-2.7,3.4-8.9,11.3-17.3,22.3-24.5,31.6-1.7-.8-3.4-1.1-4.5-1.3-.4,0-1-.2-1.2-.3-7.1-3-23.5-15.3-31.3-22.2-1.9-1.7-3.8-3.8-5.8-6-2.8-3.1-5.7-6.3-9.2-9-1.3-1-2.6-2-3.9-3-6.9-5.3-14.1-10.9-21.4-15.9-8.9-6-11.7-7.2-21.9-9.1-.2,0-.9-.3-1.3-.4-1.6-.5-3.5-1.2-5.7-1.3-1.9,0-3.7.2-5.4,1-2.5,1.1-4.4,3.4-6.3,7.8-2.4,5.4-2.1,7.8-2,8.7.5,3.9,3,6.1,4.3,7.1,2.7,7.1,3.6,20.3,4.2,29.2,0,1.3.2,2.5.3,3.6,1.2,16.5,2,33.4,2.8,49.8.2,5.2.5,10.4.7,15.6.4,8.8-.2,18.2-.8,27.3-.7,10-1.3,20.3-.7,30.3.6,9.3-.5,16.9-1.9,25.8-.5,0-1,.1-1.5.2-.7,0-1.5.1-2.3.2-3.9.5-8,.9-12,1.3-3.8.4-7.7.8-11.5,1.2-1.8.2-3.4.8-4.7,1.3-.8.3-1.8.6-2.2.7-.2,0-.5,0-.8,0-.4,0-.9,0-1.4-.1-.6,0-1.3-.1-2-.1-.8,0-1.5,0-2.2,0-5.4.3-10.2,1-14.9,1.8-3.3.5-6.4,1-9.7,1.3-21,2.1-41.9,4.6-60.4,6.9-8.6,1-18.5,2.5-28.1,5.9-.1,0-11,4.1-13.5,6.3-3.5,3.1-3.4,8.1-3.4,11.4v.2c0,4.1,1.1,7.5,2,10.4.4,1.2.7,2.4,1,3.6.6,2.5,2.5,4.6,4.9,5.4,1.1.3,2.2.9,3.5,1.4,1.3.6,2.6,1.2,4.1,1.7,5.9,2.1,11.9,3.8,18,5.5.4.1.9.3,1.5.6.2,0,.3.1.5.2,1.3,1.6,3.3,2.5,5.3,2.6.4,0,.8,0,1.2,0,.3,0,.6,0,.9,0,1.3,0,2.8.6,4.6,1.2,1.8.6,3.9,1.4,6.4,1.8.8.1,1.5.3,2.3.4,3.3.6,6.4,1.1,9.6,1.9,15.7,4,28.2,6.2,39.3,6.7,2.3.1,4.6.1,6.7.1,8.6-.1,17.6-.3,27-.9.8,0,1.5,0,2.3,0,2.1,0,4.7,0,8.5-1.2,1.6-.5,17.4-7.5,20.1-9.7,10.4-8.7,18.9-19.6,25.2-32.2.6-1.3,1.1-2.6,1.5-3.9.1-.3.3-.8.4-1.2.1,0,.2,0,.3-.1,1.9-.3,4.3-.4,6.7-.6,2.5-.2,5-.3,7.4-.6l1.4-.2c6.3-.9,10-1.4,16.8-1.7,19.5-.9,39.3-2.5,58.4-4,18.2-1.4,37-2.9,55.5-3.8.1,0,.3,0,.5,0,.4,0,.8,0,1.3.1.6,0,1.3.1,2,.2.9,0,1.7,0,2.5,0,1.2-.1,2.4-.3,3.5-.6,0,0,0,0,0,.1l38.3-3.4c3.2-.1,6.5,0,9.9,0,1.2,0,2.4,0,3.6,0,.6,0,1.3,0,2,0,1.1,0,2.2.1,3.3.2,1.1,0,2.3.2,3.4.2,1,0,1.9,0,2.7,0,2.9,0,5.4-.3,7.9-.7,2.5-.3,4.9-.6,7.3-.5.6,0,1.2,0,1.8.2,1.3.2,2.2.3,2.9.5,1.1.2,2,.4,3.3.4,1.6,0,3.2,0,5.9-.3,1.1-.1,2.5,0,3.7,0,.7,0,1.3,0,2,.1.8,0,1.5,0,2.3.1,2.9.1,6.2.2,9.5-.6h10.6c2.3.2,4.7.4,7.2.6,7.4.4,14.7,0,21.8-.5,4.5-.3,8.7-.5,13-.6.1,0,.2,0,.3,0,.7,0,1.5.2,2.5.4,1.3.3,2.7.5,4.3.6.1,0,.2,0,.4,0,2.7,0,5-.6,6.6-1.1.6-.2,1.4-.4,1.7-.4.2,0,.3,0,.3.1h0c2,1.1,3.5,1.3,6.1,1.4,0,0,.2,0,.3,0-1.1,1.2-2.2,2.5-3.3,3.8-1.6,1.9-3.3,3.8-4.4,4.9-1.1,1-2.5,2.1-4,3.2-2.5,1.9-5.3,4.1-7.6,6.8-4.5,5.3-10.9,16.4-13.7,22.3-1.9,3.9-3.9,8-5.9,11.9l-1,2c-.7,1.4-1.4,2.6-1.9,3.7-2.4,4.3-3.8,7.1-4.5,14.7-.9,9.5-.6,12.5-.5,13.5.4,3.8,2.5,7.3,4.4,10.4.8,1.2,1.6,2.7,1.9,3.4.2.6.5,1.9.6,2.9.3,1.7.6,3.6,1.3,5.3.7,1.7,1.9,2.9,2.8,3.8.5,3.2,2.3,5.5,5.9,7.7,8.2,5,24.5,12.6,35.2,14,1.2.2,2.6.3,4.1.4,1.7,0,3.3,0,5,.1,1.5,0,3,0,4.4,0,1.2,0,2.3.2,3.2.3,1.2.2,2.2.6,3.5,1,1.9.7,4.3,1.5,7.3,1.7,1.9,0,3.7,0,5.7-.6,6.5-1.5,9.2-4.5,11.6-7.1.7-.8,1.4-1.6,2.3-2.3.8-.7,1.9-1.6,3.1-2.6,1.5-1.2,3.2-2.6,4.7-4,1.8-1.6,3.4-3.3,4.6-5,1-1.4,1.5-2.7,1.8-3.7.7-.4,1.5-1,2.2-1.9,1.7-2.2,1.7-4.6,1.5-6,.4-.7.9-1.6,1.3-2.3,1.1-1.9,2.3-3.8,2.9-5.9.3-.9.3-1.7.4-2.4.8-1,1.7-2.3,2.1-4.2,1.3-6,1.3-13.2,1.3-19.5,0-2.7,0-5.2,0-7.5.1-3.3.4-6.6.7-10,.5-6.6,1.1-13.4.7-20-.1-1.8-.5-3.5-.8-5-.2-1.1-.5-2.2-.5-2.9-.1-2.2-.4-3.6-.6-4.8-.1-.7-.2-1.3-.3-2.2-.3-2.4-.2-5.1-.2-7.9,0-1.6,0-3.2,0-4.8l10.2.5c3.3,1,6.8,1.5,10.6,1.7,3.6.2,7.1,0,10.4-.2,2.3-.1,4.4-.2,6.6-.2.3,0,.6,0,.9,0,2.5.1,5.5.7,8.6,1.3,3.6.7,7.4,1.4,11.2,1.6,4.9.2,9-.5,12.7-2.1l1.2.3c1.3,1.2,3,2,4.8,2,.8,0,1.5,0,2.3-.3.3,0,.5-.2.8-.3.6.1,1.2.2,1.8.3,2,0,3.7-.5,4.8-1,1.3.2,2.2.5,2.5.7,1.2,1.4,2.9,2.4,4.8,2.6,1.1.1,2.2.2,3.3.3,3.6.2,7.1,0,10.4-.2,1.9-.1,3.8-.2,5.6-.3,1.2.8,2.5,1.3,4,1.4,0,0,0,0,0,0l14.4.6c.6.5,1.2.9,2,1.2,3.1,1.3,6.2,1.9,9.7,2.1,1.9,0,3.7,0,5.8,0,.6.4,1.2.7,1.9.9,3.7,1.2,7.8,1.4,11.3,1.5h.9c3.4.2,6,.6,8.9,1.1,1.9.3,3.8.6,6.1.9.8,0,1.6.2,2.5.2,3.1.1,5.9,0,8.6-.3,2.1-.2,4.1-.3,6-.3.1,0,.3,0,.4,0,2.3.1,5.3.7,8.2,1.2,3,.6,6.1,1.2,9,1.3,0,0,0,0,.1,0,.3,0,.5,0,.8,0,0,0,.2.1.3.2,3.4,2.2,7.5,2.7,10.9,2.8.6,0,1.2,0,1.7,0h.8c1.4,0,2.7-.3,3.9-.9,1.5.3,2.7.4,3.4.5.1,0,.2,0,.3,0,1.3,0,2.4-.1,3-.3,0,0,0,0,0,0,6.1.5,12.1,1.4,18.4,2.3,3,.5,6.2.9,9.3,1.4,5.6.8,11.2,1.5,16.8,2.3,15.2,2.1,31,4.2,46.5,6.1,6.9.9,11.7,1.1,18.1,1.4h.8c.2,0,.5.2.7.2.7.2,1.7.5,2.7.6,0,0,0,0,0,0,23.7,5.1,40.3,4.8,40.3,4.8h0c.3,0,.6,0,1,0,3,.1,5.9,0,8.6-.2,2.4-.1,4.8-.3,7.2-.2h0c.8,0,2,.3,3.2.6,1.4.3,3,.7,4.7.8.3,0,.6,0,.9,0,1.4,0,2.7,0,3.9,0,.9,0,1.8,0,2.5,0,.2,0,.3,0,.4,0,.2,0,.4,0,.6,0,.5,0,.9,0,1.4,0,0,0,0,0,0,0,2.2.5,6.9,1,8.1,1.1.6,0,1.3.1,2,.1,2.4.1,4.5,0,6.6,0,1.9,0,3.7-.1,5.5,0h.3s0,0,0,0c3.5.2,6.7-2.2,7.6-5.6,1.3,0,2.7,0,3.8,0,1.1,0,2.2.1,3.2.2.9,0,1.7.1,2.6.2.3,1.1.9,2.2,1.7,3.1,1.4,1.6,3.1,2.3,7,3.5,4.1,1.2,5,1.3,5.5,1.3,3.3.2,6,.3,8.7.5,6.4.5,11.9.8,16.9,1.1,5.3.3,10.1.4,14.2.4,3.8,0,6.9-2,8.2-5.3,0-.1,0-.2,0-.3h.3c3.7.2,7-2.4,7.7-6.1.4-2.3-.2-4.6-1.6-6.4ZM397.8,250.8c-10.6,2.7-22.1,3.8-34.5,3.2-5-.2-10.2-.8-15.3-1.6-2.8-.4-5.6-1-8.5-1.5,1.7-.3,3.3-.5,4.9-.7.9-.1,2.2-.1,3.5-.1,1.1.7,2.4,1.1,3.8,1.2,2.5.1,4.4-.9,6-1.8,1.2,0,2.8,0,4.3,0,2,0,4,.1,6,0,11.1-.9,22.3-2.3,33.1-3.7,2.2-.3,4.4-.5,6.7-.8-3.4,2.8-7.1,5-10.1,5.7ZM606.7,177.1c-.2.4-.6.9-.9,1.3-1,1.4-2.3,3.2-2.3,5.9,0,0,0,2.3.4,4.8-1.3.2-2.4.5-3.5.8-1,.2-1.9.5-2.6.6-1-.6-2.5-1.3-4.4-1.4-.6,0-1.2,0-1.8,0-1.6.2-3,1-4.1,2,0,0,0,0,0,0-1.6,0-3.1.1-4.3.3-.5,0-1,.1-1.4.2-.2,0-.5,0-.7,0-.5,0-1-.1-1.7-.1-1.6,0-3,0-4.3.5-.2,0-.5,0-.8,0-.1,0-.2,0-.4,0-4.2,0-10.4,0-15.9,3.4-.1,0-.2,0-.3,0-.8-.2-1.9-.5-3.2-.6-1-.1-2.1-.2-3.1-.2-6.3-.3-12.3.4-18.2,1.2-2.3.3-4.6.6-6.8.8-9,.8-18.3,1.3-27.4,1.7-10.8.5-22,1-32.8,2.2-1.9.2-3.8.5-5.6.9,2.8-47.3,2-97.4-2.4-153.1,0-1-.3-1.9-.8-2.8,2.4,1.2,4.3,2.3,5.8,4,1.4,1.6,2.9,3.3,5.5,3.9.2.2.4.4.6.6,1.2,1.2,2.3,2.3,3.4,3.1,6.9,5.1,13.7,10.6,20.3,15.9,3.1,2.5,6.3,5.1,9.5,7.6,1,.8,2.2,1.7,3.4,2.7,6.8,5.3,17.1,13.4,21.1,18.6.2.2.3.5.6,1.1.8,1.8,2.3,4.8,6.6,7.2,1.5.8,2.5,1.2,3.2,1.5,0,0,.1,0,.2,0,.1,0,.3.3.6.6,1.8,1.8,4.2,2.9,6.8,3,7.8.4,13.2-7.7,13.8-8.7,2.9-4.5,4.6-9,6.3-13.3.5-1.2.9-2.4,1.4-3.6,0-.1,0-.2.1-.3,0,0,0,0,0,0,.7-.5,1.7-1.2,2.8-2.4,1.7-1.8,2.8-3.7,3.6-5.3.3-.5.7-1.3.9-1.6,4.2-4.6,7.7-9.8,11-14.9,1.5-2.3,3-4.5,4.5-6.6.6-.9,1.9-2.4,3.1-3.8,2-2.3,3.6-4.2,4.8-5.9,0,.8,0,1.5,0,2.3-.2,8.1-.5,16.4.9,25l-.5,10.5c-.1,1.8.2,3.2.4,4.1,0,.1,0,.2,0,.3.4,25.4,3.4,48.6,6.5,73.1.3,2.1.5,4.2.8,6.3.2,2,.7,3.4,1,4.5.4,1.1.4,1.3.2,2.3ZM703.4,144c-.8,2.9-.5,5.4-.3,7,0,.4.1.8.1,1.1-.6,1.4-2.2,4.2-2.8,5.4-2,1.9-8.8,7.4-10.5,8.4-2.3,1.2-5.2,1.8-8.2,2.5-1.8.4-3.7.9-5.6,1.4.2-1.3.4-2.7.4-4.2,1.7-9,7.1-17.6,13.9-22.1,1.2-.6,5.5-2.6,7.3-3.3.3,0,.6,0,1,0,.3.4.7.8,1.2,1.2,1,.8,2.4,1.4,3.9,1.8,0,.2-.2.5-.3.8ZM837.7,270.7c-.2,6.4-.7,12.7-1.6,19.2-.9,6.2-1.8,10.5-4.1,15.2-3.3,6.7-7,14.4-12.7,18.4-.6.5-1,.6-1.1.7-.2,0-.5,0-.8,0-.9,0-2,0-3.6.3h-.5c-4.7.7-7.6,1.1-12.3,1.1-1,0-1.8.1-2.5.3-2.6-1.2-8.5-4.7-10.5-6.3-1.9-1.5-5.6-4.9-7.2-6.6-.5-1.7-1-5.9-.9-7.7.1-.2.3-.4.4-.6.7-1.1,1.6-2.6,2.1-4.5,3.2-12.5,3.7-13.2,11.6-23.7l.5-.7c1.4-1.9,2.4-4,3.2-5.9.5-1,1-2.1,1.3-2.7.5-.6,2.3-1.8,3.2-2.5,2.1-1.5,3.9-2.8,5.2-4.6,1.2-1.6,1.6-3.2,1.8-4.2,1.6-1.8,5.9-5.5,7.6-7,.7-.6,1.3-1.2,1.9-1.6.7-.6,1.7-1.4,2.7-2.2,1.8-1.4,3.4-2.6,4.7-4,1.4-1.4,2.5-2.8,3.5-4,0,0,0,0,0,0,1.3-1.5,2.5-3,4.1-4.6.6-.6,1.3-1.3,1.9-2.1.2-.2.4-.4.6-.7,1,13.9,1.8,27.4,1.4,41ZM933.3,159.2c-.4.7-1.3,1.5-2.2,2.3-1,.9-2.2,2-3.2,3.3-1.6,1.9-2.9,4-4.2,6.1-1.9,3-3.9,6-5.8,7.3-2.2,1.4-5.5,3.4-8.2,4.9-.6.4-1.2.7-1.8,1-.6.3-1.5.8-2.2,1.1-2.6-.4-6.6-1.7-8.1-2.8-.3-.3-.9-1-1.3-1.5,0-7.1,2.1-13.5,5.8-17.1.4-.4.7-.7,1-1,1.8-1.7,2.2-2.2,4.2-5,1.3-1.7,8.3-8.9,10-10.1,0,0,.1,0,.2-.1.7.3,1.5.8,2.5,1.1,2.4.8,2.5.9,3.1,1.3.6.4,1.5,1.1,2.9,2,2.7,1.7,6.2,2,8.1,2.1.3,0,.7,0,1,0-.7,2-1.5,4.1-1.9,4.9Z"/>
  <g>
    <path class="st1" d="M565.7,202.4c3-2,7.8,1.5,8.3-3.2-4.3,0-9,.1-12.7,2.7l4.4.5Z"/>
    <path class="st1" d="M761.8,195.5c1.3,0,2.6-.5,4.2-.5,2.5.1,4.7,1.2,7.5.4-1-2.1-4.2-1.2-6.2-1.5-2.3-.3-3.8-1.2-6.4-.8-.9.1-1.6.9-2.6.9-1.9,0-3.7-2.3-5.7-.6l.2,1.5c3-.4,5.9.3,9,.4Z"/>
    <path class="st1" d="M1156,232.3c-4.1-1-8.3-1-12.5-1.2l10.4,2.2,2.1-1Z"/>
    <path class="st1" d="M1380.5,265.7l-33.9-1.3c0,.4,6.8,2.3,7.4,2.4,3,.1,5.9.3,9,.5,9.7.7,20.9,1.4,30.6,1.4,1,0,1.7-.5.9-1.2l-14-1.9Z"/>
    <path class="st1" d="M1215.9,241.1c.7,0,2.2.6,2.1-.5-9.7-.3-19-2.9-28.7-3.2l3.9,1.3c7.8.4,14.7,2.3,22.6,2.3Z"/>
    <path class="st1" d="M1168.8,234.8c4.8.3,10.1,1.5,14.9,2.4l4.5-.4c-6-1.8-11.4-2.2-17.6-2.6-2.4-.2-4.6-1.2-7.5-.4,1,2.5,4,.8,5.7,1Z"/>
    <path class="st1" d="M1288.8,249.4c2.1.2,3.5.6,5.4.9,1.2.2,2.4.6,2.2-1.1l-8.4-1c-.8.6-.2,1.2.8,1.2Z"/>
    <path class="st1" d="M1312.1,252.9c2.6.2,6.5-.8,9.5-.2l4-.9c-3.7-.3-7.4-.2-11.1-.5-3.5-.4-7-2.4-10.5-.8,0,.4,7.5,2.4,8,2.4Z"/>
    <path class="st1" d="M1282.3,249.1c1-.2,1.7.5,1.5-1.2l-29.9-3.2,3.3,1.3c7.4.2,18.1,4.6,25.1,3.1Z"/>
    <path class="st1" d="M1400.4,262.5c-4.6-.4-9.1-1.2-13.8-1.3l-6.3.9,22.2,1.1c.2-1-1.3-.6-2.1-.7Z"/>
    <path class="st1" d="M1030.7,222.1c3.6.3,7.2.8,10.8,1.1,1.5.1,4,1.7,5.1-.3l-16.7-2c-.8.6-.2,1.2.8,1.2Z"/>
    <path class="st1" d="M1059.7,225.6c0,1.1,2,.8,2.5.8,1.4.1,3,.4,4.3.4,1.2,0,1,0,1-1.2-1.3.1-7.7-2-7.8,0Z"/>
    <path class="st1" d="M1010.3,221.7l-1.6,2.6c0,1.3,5.5,1.1,6.8,1.8l5.7-.9c-3.5-2-8.3-.4-10.9-3.5Z"/>
    <path class="st1" d="M1086.8,228.2c-3.6-.3-7.3-1.1-11-.9-.2,1,1.3.6,2.1.7,4.9.4,9.7,1.1,14.7,1.3-1-2.4-4.1-1-5.8-1.1Z"/>
    <path class="st1" d="M1257.3,255.7l.7-1.2c1,1.9,2.5.8,2.8-1.1l-2.6-.8c-.8,2.4-3.9.5-6,.9l-1.7,2.3,3.6.8-1.1-2.4c2-.3,2.9.6,4.4,1.4Z"/>
    <path class="st1" d="M1301.5,261.4c-.5-.1,0-1.1-1.2-1.3-1.9-.3-1.3.8-2,1.1-1.7.8-5.5-.8-3.9-2,.6-.4,1.8-.2,1.5-1.7-1.7-.2-3.5,0-5.1-.2-2.1-.3-5.9-2.3-6.9-.3,2.9,1.7,5.8,1.1,8.9,2.2.2,1-.7.3-1.1.7-.4.5,0,1.6-.5,1.7-4.3-1.4-8.2-.2-12.6-.6-3.8-.4-7.5-.8-11.4-1.1-3.7-.3-6-1.6-10.2-.5-.9.2-1-.4-.9,1.2.8,0,1.7,0,2.5.3,8.4,2.6,15.1.7,23.5.9,2.8,0,5.6,1.2,8.5,1.4,2.5.2,5.5-.4,8,0l-.2-1.2c1.2-.1,1.9,1.1,3,1.3,1.5.3,5.4.8,7.1,1,4.8.5,9.3-.2,14.1,0l-3.8-1.4c-5.6-.5-11.8,0-17.3-1.4Z"/>
    <path class="st1" d="M1100,242.2c-2.1-.2-4.3.1-6.3-.6-1.6-2.1,2,.8,1.3-1.1-.6-1.5-6.5-7.1-8-7.6-2-.7-4.3-.3-6.3-.6-6.1-.9-11.9-1.8-17.9-2.7-1.1-.1-2.2,0-3.3-.2v1.8c2-1,3.3.1,5,.3,6.6.5,15.6,1.3,21.9,3,1.1.3,2.7.2,2.2,1.7-5-.7-11,0-15.9-.7-5.2-.9-9.8-2.1-15.4-2.6-1.3-.1-3.6-1.8-4,.7.1.7,5.4,2.7,2.5,3.4-1.7.4-7.8-1.3-10.1-1.6-1.3-.2-2.6,0-3.9-.2-.3-3.8,4.1-1.7,6.8-2.3,1.5-.3,1.3-1.7,2.2-1.9,1.6-.5,6,1.3,5.1-1.3-.6-1.7-3-.4-4.5-.5-2-.1-5.2-2.9-6.6-.4-.7,1.3.3,3.2-1.3,3-1-.2-3.4-1.9-4.1-2.6-.7-.7-.7-1.8-.8-1.8-.1-.1-1.4-.3-1.2.4l-.4,1.4c-4.7-.9-8.8,1.3-13.5.5-.6,1.9,1.2.7,1.8,1.6.5.9.4,2.8,1.1,3.8,3.1,1,7,1.1,10.3,1.3,6.1.3,9.7,1.3,15.5,1.9,5.6.7,10.9-.5,16.3-.4,5.5.1,12.7,2.3,17.9,2.6,1.2,0,2.5-.7,3.5-.4.5.1.5,1.3,1.3,1.8,2.6,1.7,6.7,1.6,9.7,1.8.8-.6.1-1.1-.8-1.2Z"/>
    <path class="st1" d="M1353.5,259.1c-3.7.4-7.5-.9-11-1.2-4.9-.4-10.3,0-15-.7-1.9-.3-4.2-1.4-6-1.5-1.7-.1-3.4.8-5.1.4-.1,1.3-.3,1.1.8,1.2,2.3.2,4.6.1,6.9.3l-1.2,1.1c1.1,0,2.1.2,3.2,0,4.7-.6,9.7,0,14.5.2,3.6.2,7.2.5,10.8.5.7,0,2.2.6,2.1-.5Z"/>
    <path class="st1" d="M1221.9,242c4.3.5,8.8,1.2,13.2,1.2.7,0,2.2.6,2.1-.5l-16.7-2c-.3,1.7.2,1.1,1.4,1.3Z"/>
    <path class="st1" d="M1226.3,255.7c-3.5-1.8-10.4-1.6-14.6-2.2-1.8-.3-3.5-1.2-5.3-1.5-5.1-.7-10.3.7-15.5-.2-3.3-.5-7.9-3.7-9.6-3.9-.9,0-1.4,1.1-2.9.9-4-.3-9.6-2.1-13.2-2.4-1.5-.1-2.8.7-4.7.3-1.8-.3-3.6-1.7-5.9-2.1-16.1-2.3-33-1-49.6-4.2-.9-.2-3.5-1.5-3.8-2.3l3.1-1.9-4.8-.2.5,1.8-2.4,1.4c-.1,2,9.2,3.5,11,3.6.9,0,1.9-.4,2.9-.3,9.7.7,19,2.5,28.7,3.8,21.1,2.8,42.2,5.8,63.2,8.4,7,.9,11.6,1.1,18.5,1.4,1.8,0,3.7,1.2,5.7.9.4-1.5-.2-1.1-1.1-1.5Z"/>
  </g>
  <path class="st1" d="M1125.3,227.3c-47-6.5-94.8-10.4-141.4-18.1-5.7-1-8.3,1.4-10-5.8-.8-3.2,0-4,0-6.4-.1-6.4-2.5-8.9-4.2-14.4-2.8-8.7-1.6-25.2-2.3-35.2-.4-5.2-.5-5.9,0-11.4.4-4.3-2.1-11.8-4.4-15.5-1.4-2.2-4.6-3.4-7.1-3.8-2.3-.4-11.6-1.3-13.3-.5-1.1.5-1.8,2.8-2.8,3.8-.7.7-1.9.9-2.2,1.5-.8,1.1-1.6,4.2-.6,5.4.3.4,2.8,1.4.6,1.9-3.1.7-7.2-1.8-10-2.2-2.3-.4-8.5-.7-10.8-.5-.8,0-12.6,6.1-13.8,6.9-1.7,1.1-2.6,3.2-3.8,4-1,.6-2.3.5-2.9.9-.3.2-4.1,4.3-5.2,5.3-3.3,2.8-5.2,4.9-8.2,8-1.3,1.4-3.6,2.8-4.7,4.3-3.5,5-5.2,13.4-5.5,19.5l-11.8,2.5c-1.3,0-2-11.8-2.4-13.4-1.4-5.5-5.6-12.3-7.7-17.6-2.4-6.2-1.2-10.6-1.8-16.7-.2-1.9-2.2-4.6-2.4-6.4-.1-1.4.9-2.4.2-4.2-.9-2.3-6.5-4.5-8.9-5.1-2.6-.6-8.6-1.7-11.2-1.9-3.6-.3-6.6,6.6-6.8,9.6-.2,3.6,5.1,5.1,6.9,8.1,1.2,2,0,2.7-.1,4.2,0,2.1.3,5.6,0,7.7-.1.8-1.3,1.8-1.8,3-1.8,5.3-1.5,13-3.1,18.6-.9,3-3.8,7.1-7,10.8-2.9,3.3-6.1,6.4-8.5,8.1-3.4,2.5-13.1,6.7-17,4.6-2.6-1.4-1.8-4.3-2.4-6.4-2.2-8.5-1.3-14.5-1.6-23.2-.2-5.5-2.3-12.5-2.1-17.6,0-1.3.8-2.2.6-4,0-.7-1.4-5.2-1.7-5.9-.8-1.7-3.8-3.5-4.6-5.7h-9.8c-3.6,1.9-5.6,2.7-5.2,7.4.1,1.3,1.2,1,2,2.2.7,1,1.4,8.3,1.4,10.1,0,3,.4,4,.5,6.5.9,13.9-3.2,34.7,10.4,44.4,1.4,1,3.2,1.7,4.8,2.2.1,1.6-.1.9-.9,1.1-5.4,1.5-4.8,0-9.1-.4-4.2-.3-7.7.5-12.5,0-1.9-.2-6.1.3-7.1-1.5-.6-1.1-.2-2.5-1.3-4-1.9-2.4-5.3-2.7-5.7-6.9-1.1-10.9-2.5-22-3.3-33.1-.1-1.7.5-3.7.2-5.4-.2-1.6-2.1-3.4-2.1-5.6,0-3.1.7-1.7-.4-5.4-1.9-6.3-4.4-15.5-7.7-21.1-.5-.9-7.5-7.4-8.3-7.9-4.4-2.3-6.4-.4-10,1.5-.8.4-1.9.3-2.5.7-.2.1-3.2,3.3-3.2,3.6,0,.5,1.2,2.2,1.4,3.2.2,1-.2,2.6,0,3.1,0,.1,1.8.8,2.6,1.4,2.3,2,4.7,6.1,4.1,9.2l-5.4-5.7c-2.6-.5-5.3-4.7-6.7-5.4-1.6-.8-3.4-.2-5.1-.6-.9-.2-1.5-1.2-2.3-1.2-1.5,0-7.9,1.4-9.8,1.9-4.6,1.3-18.6,9.7-21.6,13.4-3.1,3.7-10.9,16.9-12,21.4-.3,1.3,0,2.7-.4,3.9-1.7,5.3-5.8,15.9-3.6,21.3.9,2.2.9,2.7,1.6,4.9,1.2,3.9,4.4,2.7,5.5,4.2,1,.7-.4,2.1,0,2.6.2.4,2.8,1.7,2.8,2.9l-4.9,1.3c.2,6.8,6-1.7,8.9,2.8l-19.1,1.9-2-.5c-1.5-2.1,7-1.9,8.2-2,1,0,1.9.4,2.7-.8,0-1.5-9.5-2.8-10.8-1.1-.4.6-1-.4-1.1-.7-.4-1.9.6-4,.5-5.7-.1-2.6-1.5-6.3-1.6-9.3-.2-5.2.8-10.9.8-16.2.1-17.8-1.4-35.7-2.3-53.5-1.2-25.3-3.9-50.9-6.6-76-.2-1.9.3-3.8.1-5.8-.5-4.5-3.3-8.2-6.3-11.1-3.2-3.1-6-5.1-10.3-7-5.4-2.5-9.2.1-10.9,5.6-2.4.7-1.9-2.2-3.2-3.2-2.3-1.7-7.8-2-10.6-1.7-1.8.2-3.1,1.4-3.4,3.1-2,10.6-10.3,19.7-16.9,28.1-8.4,10.7-16.5,21.2-24.8,32-1.2,1.5-2.8,3.5-4.2,4.8-2.2,2.2-1.4.1-2.5-1.5-1.7-2.5-5-2.1-7.4-3-8.6-3.6-26-17-33.4-23.5-5.1-4.5-9.3-10.6-14.7-14.8-8.2-6.3-16.4-12.8-24.9-18.6-7.8-5.3-9.8-6.2-19.1-7.9-2.4-.4-5.6-2.3-8.1-1.2-1.3.6-4.2,7.2-4,8.8.2,2,2.5,2.1,3.3,3.9,4,8.9,4.8,26.1,5.5,36.2,1.6,21.8,2.5,43.8,3.6,65.5.9,18.8-2.6,38.9-1.5,57.5.6,9.9-.4,17.8-2,27.5-1,6.4-4.6,5.8-10.2,6.5-7.8,1-15.7,1.6-23.5,2.5-2.2.3-4.7,1.8-7.4,2-2.2.1-4.4-.4-6.5-.3-8.7.4-15.8,2.2-24.2,3.1-20.3,2-40.2,4.4-60.2,6.9-8.9,1.1-17.9,2.4-26.5,5.5-1.6.6-10.3,4.2-11.1,4.9-1,.9-.9,4.5-.9,6,0,4.6,1.8,8.2,2.8,12.5,2.6.9,5.1,2.2,7.7,3.2,5.7,2,11.6,3.7,17.5,5.3,2.1.6,4.1,1.8,6.4,2l-.7,1.2c5.2-.6,9,2.2,14,3.1,4.3.8,8.3,1.4,12.4,2.4,13.9,3.6,29.7,6.8,44,6.6,8.9-.1,17.6-.3,26.6-.9,3.6-.2,5.1.4,9-.8,2.1-.7,16.4-7.4,17.6-8.4,9.8-8.2,17.6-18.4,23.3-29.8,1-2,1.7-5.5,3-7.3.3-.4,3.6-1.8,4.2-1.9,4.5-.8,10.2-.7,14.8-1.4,7.3-1,11.2-1.6,18.8-2,38-1.8,75.8-5.9,113.8-7.8,2,0,4,.4,6,.2,3.1-.3,6.6-1.7,9.9-1.4h0s28.5-2.2,28.5-2.2c0,0,0,0,0,0h.8c0,0,0,0,0,0,5.6-.4,11.2-.2,16.8-.2,4,0,7.9.6,11.4.5,6.1,0,11.4-1.9,18.1-1,5.5.8,4.4,1.1,10.2.5,5.2-.6,11.9,1.1,17.4-.4h12c13.8,1.7,27.7-.3,41.4-.5,2.9,0,5.3,1,7.8,1,3.6.1,6.4-2.3,10.1-1.2,3,.9,1.1,1.1,5.4,1.3,3.9.1,7,1.1,10.1,1.4,1.5.1,4.1-1.1,5.2-.4.6.6.7,1,.4,1.8,0,.3-3.5,4-4,4.4-1.1,1-2.3,1.1-3.5,1.9-3,2.1-8.4,9.4-11.7,12.4-3.4,3.1-8,5.9-11,9.4-4,4.7-10,15.2-12.7,20.7-2.2,4.6-4.6,9.3-6.9,13.9-3.3,6.7-4.9,7.4-5.7,15.8-.3,3.1-.8,9.1-.5,12,.4,3.5,4.5,8.4,5.9,11.9,1,2.5,1.1,6.1,1.9,8,.4,1.1,2.5,2.2,2.8,3.2.9,2.4-.6,2.7,2.9,4.8,8,4.8,23.3,11.8,32.3,13,5.3.7,11.4,0,16.7.9,5.2.8,7.8,3.6,13.6,2.2,6-1.4,6.6-4.1,10.7-7.7,2.9-2.6,8-6.3,10.7-9.5.2-.3.4-.5.6-.8,1-1.5,1-3,1.8-4.3.8-1.2,2.2-1.3,2.3-1.6.3-.4-.2-1.8,0-2.8.7-2.7,3.9-6.5,4.6-8.9.3-1-.4-1.9,0-3,.4-1.3,2-1.8,2.3-3.2,1.7-7.5.9-17.9,1.2-25.7.4-9.7,2-19.8,1.4-29.3-.2-2.5-1.2-5.3-1.4-8-.2-3.1-.6-4.1-.8-6.6-.6-5.5,0-11.7-.5-17.4-.2-2.4-1.6-3-1.6-3.2-.2-1.2-.5-4.8.6-5.6l1.1,4.9,19.1.9c8.9,2.9,17.5,1.3,26.3,1.3,10.2,0,23.1,6.4,32.4.4l6.9,1.5.5,1.2c-.3-2.8,1.2-2.8,3-3.9.6-.4,1.1,0,.8-1.3-1.8.2-3.1-1.5-4.5-1.9-5.5-1.5-11.9-.2-16.8-3l12.9.3c4.6,1.7,14.3.7,17.5,4.7.4.5.7.7.5,1.5-3,.1-7.3.7-9.2,3.2,1.6.7,2.9-1,3.9-1,3.1,0,7.4.9,9.4,3.5,7.1.9,14-.5,21.1-.3l1.6,1.4,16.2.7.4-1.2-.8-1.3c3.7.6,2,1.4,3.1,4.1,4.3,1.8,8,1.7,12.6,1.5l-.7-5.5c-1.3-.5-2.7-.8-4.1-.8-1.3,0-2.4.9-3,.9-2.6,0-6.9-2.5-8.9-2.6-1.9-.2-3.7.9-6,.3-2.4-.6-5.2-3.7-.7-3.6-1.6-3.4-4.6-.4-5.7-.5-.5,0-1.2-.8-1.9-1-3.3-.7-6.6-1.2-9.9-1.9-2.4-.5-6.1-3.5-2.4-3,1.7.2,3,1.2,4.7,1.4,4.6.8,10.9,1.5,15.5,1.9,1.9.2,11.3.4,12.1-.6l.4-1.8c-4.1-.6-8.2-.8-12.3-1.2-1.2-.1-2.2-.7-3.5-.8-3.9-.4-16.4,0-18.8-2.4-1.1-1.1-1.5-2.7.4-2.7,1,0,2.3.8,3.6.9,1.3,0,2.5-.4,3.5-.3,2.6.2,5.8,2.5,8.7,2l-1.1-1.2,1.7,1.3h7.3s.7,2.2.7,2.2c2.5-1,4.6-1.1,7.2-.9,9.9.9,21,3.1,31,4.5,27.5,3.8,55.4,5.9,83,9.9,6.2.9,12.1,3.4,18.8,2.7l-16.4-3.7ZM422.8,239.3c-4.1,7.5-14.8,16.6-23.1,18.7-17,4.4-35.3,4.5-52.8,1.8-9.5-1.4-19.1-4-28.5-5.6-2.5-.4-6,1-5.6-2.7-1.6-.2-2.3,1.8-3.7,2.2l-.4-3.6c-2.9,2.7-5-1.1-8.4-.4-.1-.9,1.1-.8,1.7-.9,3.1-.8,10.3-1.3,13.7-1.3.8,0,1.7.7,2.3.6.6,0,1.2-1.2,2.1-1.5,1.4-.4,4.3-.7,6-1,5.8-1,11.8-2.1,17.5-2.8,2.5-.3,6,0,8.7-.2-1.7,2.9,2.6-.2,3.4-.3,3.4-.6,8.2,0,11.8-.2,15.1-1.3,30.1-3.3,45.2-5.1,3.7-.4,6.6-2,10.6,0,.1.8-.2,1.5-.5,2.2ZM530,207.3l-18.9.9c-.2-1.3.2-1.2,1.2-1.4,4.8-.9,10.5-.5,15.3-.8,2-.1,5.3-2.2,6.3.4-1.8,0-3.2-.9-4,1ZM606.7,200.8c-7.8.5-15.4,1.3-22.9,1.3-1.3,0-1.8.2-1.5-1.3,1.1,0,2.2-.4,3.3-.5.7,0,5.9.8,4.6-1-2.8-1.4-5.3-.5-8.1-.4-1.7,0-4.6-.8-5.8.6-.7.9-.4,2.4-1,2.8-.5.3-7.9,1.7-9.1,1.8-4.4.4-9.3.6-13.8.6-1,0-2,.5-3,.5-.6,0-3.2-.5-3.2-1.4l12.7-1.2c-1.8.1-3.3-.7-5-.9-9-.9-17.8.9-26.6,1.7-19.8,1.8-40.6,1.7-60.1,3.9-4.8.5-9.5,1.9-14.3,2.3.1-2.3.2-4.6.3-6.9,3.2-51.2,1.8-103.1-2.3-154.4-2.9-5.1-3-10.9-3.4-16.7,3.3-.7,3.6,1.1,5.3,2.3,5.5,3.8,11.6,5.1,16,10.1,2.4,2.8,1.3,1,3.8,2.3.8.4,3.4,3.4,4.6,4.4,10.3,7.6,20,15.8,30,23.7,7.2,5.7,20.4,15.6,25.7,22.5,2,2.6,1.4,4.4,5,6.4,2.9,1.6,3.1.8,5.7,3.4,2.8,2.8,7.5-2,9.1-4.4,3.3-5,4.8-10.3,7-15.6,1.4-3.5,2.5-3,4.6-5.1,1.8-1.8,2.6-4.9,4.2-6.7,5.6-6.1,10-13.8,14.9-20.8,2.1-3,7.6-8.7,9-11.5.7-1.4.3-2.8.9-4,.7-1.4,3.5-2.4,4.3-3.4.9-1,2.5-7.2,5.3-5.1,1.2.9,1.9,8.6,1.9,10.5.1,11.6-1.3,23.3.8,34.9l-.6,11.4c-.1,1.2.4,2.4.5,3.6.4,27.2,3.8,52.1,7.2,78.9.5,3.8,2.2,4.7,1.1,9.7-.5,2.1-3,4.6-3,5.3,0,.8.5,5.1.8,5.5.4.6,1.3.3,1.6.6.7.6,2.1,2.4,2.5,3.3-1,4.9-5.1,2.6-8.2,2.5-4.2,0-8,2.3-12.1,1.5-1-.2-1.6-1.4-2.8-1.2l-1.4,3.5c1.4,1.3,11.9-1.7,14.2-1.7,1.4,0,2.9.8,4.7.8,2.3,0,6.9-2.2,6.8.9-3.5,1.3-7.1.5-10.5.7ZM723.3,197.9c-5,.6-13-1-18.6-.9-4.1,0-8.3,1-12.4,1.2l3.9-2.9c3.3-1.4,4.7-.3,7.4-.1,5.8.4,12.4-1,17.9-.4,2.6.3,4.8,2.7,1.7,3.1ZM714.1,202.3c-2.7,0-5.1-.4-7.8.3-4-1.1-8.2-.3-12.3,0,0-.7,1.9-1.3,2.5-1.4,1.2-.3,4.1-.7,5.2-.7,1.5,0,2.7.8,4.1.9,2.7.1,6.3-1,9.3-.2.7.7,0,1.2-.9,1.2ZM720.2,188.4c1.5,2,3.6,5.2-.4,5.2-1.2,0-2-.6-2.9-.6-1.1,0-2.3.6-3.6.4-1.3-.2-2-1.2-2.8-1.3-1.6,0-3.9,1.4-5.9.8,1.4-2.8,5.1-2.9,7.4-4.2,3.6-2,3.9-6,8.2-.3ZM669,165.2c1.8-10.8,8.2-21.9,17.5-27.9.7-.4,8.8-4.1,9.3-4.2.7-.1,6.6-.5,7-.3,1.2.3,1.1,2.5,1.6,2.9.6.5,5.1,1.1,6.2,1,2.4-.1,6.8-3.2,5.5,2.2-1,4.1-4.8,5-5.5,7.2-.8,2.7.7,5.2,0,8.1-.2.8-3.7,7.4-4.2,8-1.6,1.8-10.8,9.2-13,10.3-5.7,2.9-12.5,3.2-17.9,5.5-1.6.7-2.3,2.7-4.4,1.4-.5-.3-2.7-3.7-2.8-4.4-.4-3.3,1-6.6.8-9.9ZM677.8,207.2c-4.3.1-8.7,0-12.9,0l4.2-1.3,5.2-.5c.9,1.1,6.4-.4,6.2,1.1,0,.9-2,.8-2.7.8ZM718,207.3c-1.4,0-2-1.3-2.8-1.3-1.5,0-5.1,1.4-7.4,1.4-4.7,0-9.7-.5-14.4-.6-2.6,0-5.9.4-8.4.1-1.1-.1-2,0-2.6-1.1,2.5-1,5.5-.8,8.2-1,.5,0,1.1.5,1.7.4,1.3-.2,2.5-2,4.6-.2l.4-1.8h2.1c0,.1-.7,1.9-.7,1.9,2,1,4-.9,5.2-1,.9,0,1.9.7,2.9.8,6.3.5,14-.9,21.1-.8,1.2,0,2.4-.6,3.6-.5,1.2.1,5.1,2,5.5,3.3-2.8,0-5.2-1.1-8.1-1-3.1.2-7.6,1.5-10.9,1.3ZM727.3,213.7c-2.3-2.1-5.3.4-7.4-1.9,1.2-1.3,4-1.9,5.5-.9.3.2.4,1,.7,1.3.2.2,3.7,1.3,1.3,1.4ZM735.8,212.9c-2.1,0-3.7.3-5.5.4-1.9,0-1-1.2-2.6-1.4,1.7-2.4,6.2.6,9-.2.7.7,0,1.2-.9,1.2ZM831.7,191.7c1.5-1.6,6.6-9.1,7-2.4.5,7.8-4.8,8.5-11.2,7,.6-2.4,2.9-3.3,4.1-4.6ZM828.8,197.7l4.5,1.5c-.2,1.7-8,1.3-9.7,1.6-.5-2.3,3.4-3.4,5.1-3.1ZM816.6,204.7l5.1-.3,6.6-.3c-1.6,2.1-3.9,1.8-6.3,1.7-2-.1-4.1-.2-5.8,1.3l.4-2.4ZM772,202.3c1.1-2.1,6.4,0,8,0,2.5,0,8.6-3,8.6,2.2-1,.2-.2-1.3-.8-1.2-2,.3-3,.6-4.8-.9-.3,1.4-6.7,1.6-8.4,1.4-.5,0-3.2-.5-2.6-1.7ZM757.5,207.9c-3.6-3.5-7,1.8-10.4-1.3,2.1-3,2.9-1.3,5.1-1.3,1.1,0,2.2-.8,3.2-.9,2.7-.3,5.3,1.9,2,3.5ZM769.1,213.3l-8.1.3-.8-2.7.6-.6c1.5-1.1,7.9-.3,8.3,1.1.2.6,0,1.4,0,2ZM766.4,203.1c-2.4,0-3.4-.3-5.5-.5-1.7-.1-3.4.8-5.1.4l4-2.2c3.2,1.3,5.8.8,9,.4,1-.1,1.3-1,2.1.4-.9,3-2.7,1.5-4.5,1.5ZM811.1,208.6c-10.6-.9-21.7-.7-32.4-1.5-2.5-.2-7,1.5-8.6-1.1,2,.4,3.8,0,5.7-.2,10-.7,20.9,1.1,31.2,1.7,3.1.2,8.6-1.6,10.3,1.9-2.2.3-4.2-.7-6.2-.9ZM843.4,291c-.1.8-.2,1.6-.3,2.4-.8,5.5-1.9,10-4.4,15.1-3.6,7.5-7.9,16.1-15.1,21.2-3.9,2.8-4.8,1.8-8.8,2.3-5.1.7-8.4,1.1-13.9,1.1-1,0-2,.6-3,.5-2.7-.3-12-6-14.6-8-2.3-1.8-7.1-6.1-8.8-8.3-1.6-1.9-2.4-10.8-2-13.5.3-1.9,2.1-3.6,2.6-5.4,3.7-14.3,4.7-15.5,13.3-26.9,1.8-2.4,2.9-6.1,4.4-8.4,1.8-2.6,7.2-5.4,8.4-7.1.8-1.2.5-2.4,1.3-3.6,1.9-2.7,8.3-8.1,11.1-10.5,2.1-1.8,5.4-4.1,6.9-5.7,2.5-2.7,4.2-5.1,6.9-7.9.3-.3.7-.7,1-1,2.1-2.1,6.2-7.5,9-7.7,4.7-.3,5.7,2.3,6,6.7,1.6,22,3,42.7,0,64.8ZM947.5,191.7c1.3-1.2,3.9-.5,2.7,1-.9,1-1.7,1.7-2,3.1h-2.3c-.4-.5,1.1-3.6,1.7-4.1ZM896.8,158.7c2.5-2.5,2.3-2.1,4.5-5.1,1.3-1.8,9.8-10.5,11.6-11.8,1.2-.8,2.8-1.7,4.2-1.8,2.3-.2,3.4,1.2,5.3,1.8,5.1,1.7,3.7,1.7,7.5,4,1.5.9,5.3,1.3,7,.9,1.4-.3,1.9-2.6,3.7-2.1,2.4.8,3.6,5.2,3,7.6-.5,2-3,9.1-4,10.8-1.6,2.6-4.3,4.3-6.1,6.5-3.8,4.6-6.8,11.6-11.7,14.9-2.9,1.9-7.3,4.4-10.4,6.2-1.2.7-4.3,2.2-5.5,2.2-3.6-.2-9.9-2.1-12.9-4.3-1.7-1.2-4.2-4.3-4.3-6.4-.2-8.1,2-17.4,8-23.3ZM862,202.7v-2.4c6-.6,11.7,0,17.5.8l-4.4-2-8.4-1c-1.2-.6-4.1,2.3-4.8,1-1.9-3.9,5.6-7.7,7.4-10.8,4.1-1.4,2.2,2.8,3.6,4.5,1,1.2,6.9,6.9,8.2,7.8,2,1.4,5.1,1.3,6.1,3.9-3.5-1.1-6.9-.7-10.5-1.1-2.6-.3-4.3-.2-6.6-.4-1.1,0-1.8-1.1-2.9-1.3-1.1-.1-4.9,1.2-5.1,1ZM905,221.5c-3.5-.6-5.5-2.9-9.2-1l-.3-1.2c1.8,0,4.6-1.8,6.3-1.4.4,0,4,3,3.2,3.6ZM927.4,216.9c-2.4,1.3-8.8-1.6-11.8-1.3-8.8.9-17.1-2.2-25.7-.3-3.3-1.9-12,0-8.7-5.5-.9-2.3-2.4-1-4.2-1.1-4.3-.2-8.7-.3-12.9-1.2v1.8c3-1.3,3.9,1.4,6.3,2,3.1.8,6.2-.3,9.1.6,1.1,1.5-2.8,1.7-3.4,1.7-1.7,0-4.3,0-6-.4-2.3-.4-7.5-2.9-7.3-5.4.1-3.4,2.6-1.4,4.6-1.2,4.9.4,10.1.3,15,.6,3,.2,6.8,0,9.6.5,2.4.4,4.9,2.4,7.3,2.8,0,1.2-1.2.3-1.8.2-.8-.2-1.9-.3-2.6-.5-1.3-.4-1.8-1.4-3.6-1.4-1.2,0-.8,1.1-1.3,1.2-1.6.3-4.4-.1-6.2.3.9-4.1-3.6-.5-.7,1.5,2,1.3,17.3.8,20.8.9,8.2.8,15.9,2.3,24.1,2.7,0,.6,0,1.2-.7,1.5ZM946.7,215.1l-28.6-4.1c.8-1.1,1.6-.8,2.7-.8,6.2-.1,13.6.5,19.8,1.6.6.1,8.1,1.7,6.1,3.3ZM949.7,214.7c0-1.3.7-3.6-.8-4.2-2.5-1-7.2-1.1-10-1.8-1.4-.4-2.4-1.4-3.9-1.3.4-1.2,1-1.8,2.2-2.3-1.3-2.9,4.8-3.1,5.2-5,.1-.6-.6-1.4-.1-2,.4-.5,2-1,2.6-1.6l.8.2c1.6,1.2,5.1,7.5,3.1,8.8l-4.9-.8c-.7,1.2-.6,1.5-2.2,1.1l-.2-2.4-3.4,1.6c1-.2,1.1,1.2,1.6,1.3,2.5.7,7,.1,9.8.7,1.2.8,1.1,6.3,3.9,6.5-.6,1.5-2.3,1.1-3.6,1ZM990,222.1l3.2.7c.5,3.6-3.7,1.1-6.1,1.5l2.9-2.2ZM976.9,223.2v1.8c1.9.2,4.5-.3,5.2,2.1-2.3.7-8.6-1.6-10-.9-.2,0-.1.9-.6,1-1,.2-2.2-.2-3.2-.2,0-3.5,1.6-1.4,3.2-1.8.6-.1,5.2-2.4,5.4-2Z"/>
</svg>